<svg xmlns="http://www.w3.org/2000/svg" width="130" height="145" viewBox="0 0 130 145">
  <path class="uk-text-primary" fill="#6379aa" d="M4.51,78.72l32.25,64.39a2.29,2.29,0,0,0,2.29,1.44L77.41,139l18.31-2.67c3.19-.46,6.4-.9,9.59-1.4,1.74-.27,3.81-.33,5.23-1.56,3-2.64,2.23-9.19,2.62-12.81q.95-8.79,2.47-17.49a274,274,0,0,1,8.9-36.09,2.34,2.34,0,0,0-.4-2.25A2,2,0,0,0,122,63.37L6.34,75.65A2.27,2.27,0,0,0,4.51,78.72Z"/>
  <path class="uk-text-muted" fill="#dbdbdb" d="M108.19,64.83q-3,35.4-7.07,70.67l-5.4.78-4.88.71q4.11-35.48,7.2-71.08ZM74.74,68.39q2.08,35.31,1.71,70.7l1-.14,9-1.32q.36-35.16-1.73-70.31Zm-13.82,73,9.94-1.45C68,116.47,60.46,93.69,58.94,70.06L49,71.12C50.48,94.88,58.05,117.79,60.92,141.36Zm-27.31-32a230.53,230.53,0,0,1,8.48,34.73L52,142.66A242.45,242.45,0,0,0,43.39,107C39.83,95.6,36,84.25,32.19,72.9L22,74C25.91,85.76,29.89,97.54,33.61,109.38Z"/>
  <path class="uk-text-danger" fill="#f89ea7" d="M8.89,87c3.3.76,7-.34,10.23-.85l9.79-1.53c7.47-1.17,15-1.6,22.48-2.77,13.43-2.1,62.16-6.54,69.77-11,7.06-4.09,9.48-12.49,6.82-20.19-2.8-8.09-10.37-12.83-18.36-14a37.81,37.81,0,0,0-9.62-.1,14.62,14.62,0,0,0-1.45-11.49c-5.67-9.27-18.22-8.39-27.85-7.3A17.45,17.45,0,0,0,64.86,5.53C59.69.91,52.48-.14,45.9.69A1.86,1.86,0,0,0,44.64,3.6a22.71,22.71,0,0,1,5.43,17.58c-1.06.24-2.12.49-3.17.75C41,23.41,32.18,24.57,28,29.64c-3.29,4-3.56,9.85-1.56,14.56a15.61,15.61,0,0,0,2,3.39C20.33,49.12,12.67,52.14,7,58.77a24.34,24.34,0,0,0-6,16C1.05,79.94,3.46,85.72,8.89,87Z"/>
</svg>
